<svg xmlns="http://www.w3.org/2000/svg" viewBox="0 0 32 32" aria-hidden="true" focusable="false" color="#113366">
  <path d="M5 12h22l-2-6H7l-2 6Z" fill="#F4B400" stroke="currentColor" stroke-width="2" stroke-linejoin="round"/>
  <path d="M6 12v15h20V12M4 12c0 2 1.4 3 3 3s3-1 3-3c0 2 1.4 3 3 3s3-1 3-3c0 2 1.4 3 3 3s3-1 3-3c0 2 1.4 3 3 3s3-1 3-3" fill="#fff" stroke="currentColor" stroke-width="2" stroke-linejoin="round"/>
  <path d="M12 27v-7h8v7" fill="#1E88E5" stroke="currentColor" stroke-width="2" stroke-linejoin="round"/>
</svg>
